Coordinates
version=1
nRows=23
nColumns=23
inDegrees=yes

Units are S.I. units (second, meters, Newtons, ...)
If the header above contains a line with 'inDegrees', this indicates whether rotational values are in degrees (yes) or radians (no).

endheader
time	pelvis_tilt	pelvis_list	pelvis_rotation	pelvis_tx	pelvis_ty	pelvis_tz	hip_flexion_r	hip_adduction_r	hip_rotation_r	knee_angle_r	knee_angle_r_beta	ankle_angle_r	subtalar_angle_r	mtp_angle_r	hip_flexion_l	hip_adduction_l	hip_rotation_l	knee_angle_l	knee_angle_l_beta	ankle_angle_l	subtalar_angle_l	mtp_angle_l
      7.50000000	    -10.59620159	      1.35623874	      3.73365794	      2.13577335	      0.96863439	      0.99005032	     10.31130702	     -1.83675474	     -5.16285969	     92.43577338	      1.61330859	     -0.51762643	     -4.94257130	      0.00000000	     37.93958879	      4.05307442	     -1.61321896	     44.99801241	      0.78536347	     14.78424739	     -2.89141083	      0.00000000
      7.50666667	    -10.60592496	      1.57661013	      3.92806581	      2.13390141	      0.96436845	      0.98963682	     11.96797906	     -2.47715643	     -5.12845308	     95.25184075	      1.66245824	      0.01562776	     -4.46797056	      0.00000000	     37.90549300	      4.33546644	     -1.48785243	     46.79624167	      0.81674849	     16.49541203	     -2.77152118	      0.00000000
      7.51333333	    -10.64664443	      1.78492507	      4.03791328	      2.13211983	      0.96082954	      0.98925500	     13.72107826	     -3.12008628	     -5.01865025	     97.81497709	      1.70719341	      0.51465561	     -4.12111087	      0.00000000	     37.66902730	      4.57568567	     -1.40252535	     48.20563061	      0.84134697	     18.12109160	     -2.58325794	      0.00000000
      7.52000000	    -10.64246823	      1.99124831	      4.08174852	      2.13047243	      0.95816074	      0.98891594	     15.47384616	     -3.72982037	     -4.82564364	    100.07331919	      1.74660891	      0.96135501	     -3.91702645	      0.00000000	     37.16218153	      4.78022149	     -1.35625099	     49.23735205	      0.85935391	     19.65327931	     -2.39371971	      0.00000000
      7.52666667	    -10.47326313	      2.18031967	      4.06841639	      2.12901207	      0.95648798	      0.98865029	     17.07526260	     -4.25621016	     -4.56381667	    102.00077996	      1.78024945	      1.30424509	     -3.92017472	      0.00000000	     36.26871337	      4.95608417	     -1.27669585	     49.90900819	      0.87107652	     21.04505368	     -2.33399170	      0.00000000
      7.53333333	    -10.63448775	      2.34086903	      3.97105956	      2.12757098	      0.95503868	      0.98849691	     19.12531170	     -4.74852583	     -4.22650606	    103.71826635	      1.81022524	      1.76685591	     -3.54059284	      0.00000000	     35.58628055	      5.01426891	     -1.40709601	     50.33304028	      0.87847728	     22.32671909	     -1.81842215	      0.00000000
      7.54000000	    -10.48820081	      2.41360144	      3.85686912	      2.12637946	      0.95477782	      0.98844649	     20.82440982	     -5.05967565	     -3.92146104	    105.01740635	      1.83289951	      2.05187317	     -3.52984211	      0.00000000	     34.40050525	      4.99596083	     -1.40256965	     50.44538471	      0.88043806	     23.48479500	     -1.65402324	      0.00000000
      7.54666667	    -10.53697473	      2.52263344	      3.64864239	      2.12520648	      0.95483556	      0.98852750	     22.78960767	     -5.35650116	     -3.50875988	    106.08233693	      1.85148606	      2.42882681	     -3.20676904	      0.00000000	     33.29843605	      4.93541423	     -1.60164978	     50.31974823	      0.87824529	     24.47279060	     -1.08777226	      0.00000000
      7.55333333	    -10.54429645	      2.53770981	      3.43952194	      2.12426758	      0.95564497	      0.98876706	     24.67159626	     -5.47768985	     -3.16057152	    106.77220921	      1.86352660	      2.76279342	     -2.92790703	      0.00000000	     32.00972443	      4.78594285	     -1.73460330	     49.93039797	      0.87144984	     25.32882822	     -0.58547657	      0.00000000
      7.56000000	    -10.55790507	      2.52882511	      3.21948065	      2.12341950	      0.95700795	      0.98907132	     26.53028108	     -5.51404956	     -2.83720534	    107.13525796	      1.86986300	      3.09030216	     -2.64321613	      0.00000000	     30.61947182	      4.61361260	     -1.86682699	     49.31786287	      0.86075909	     26.02798080	     -0.12881998	      0.00000000
      7.56666667	    -10.62486555	      2.50564586	      2.99316968	      2.12269165	      0.95886709	      0.98952546	     28.39749710	     -5.47199198	     -2.54714032	    107.19065920	      1.87082993	      3.44673310	     -2.29210768	      0.00000000	     29.17460262	      4.41676142	     -2.03280063	     48.47748640	      0.84609175	     26.54616080	      0.36544571	      0.00000000
      7.57333333	    -10.75587278	      2.24879011	      2.93106102	      2.12210880	      0.96127714	      0.98989240	     30.19529889	     -5.21073086	     -2.57975311	    106.82727920	      1.86448775	      3.71568286	     -2.10866746	      0.00000000	     27.74315690	      4.10983674	     -1.86422090	     47.49034728	      0.82886292	     26.85885339	      0.68265792	      0.00000000
      7.58000000	    -10.86920736	      2.35808589	      2.56252310	      2.12170745	      0.96410528	      0.99053755	     32.00598571	     -5.19543122	     -2.19233063	    106.33078027	      1.85582221	      4.25072587	     -1.49100276	      0.00000000	     26.09906850	      3.96224873	     -2.32672407	     46.15336736	      0.80552822	     26.99936768	      1.46350754	      0.00000000
      7.58666667	    -10.95862891	      2.22589471	      2.37300529	      2.12148447	      0.96752437	      0.99110031	     33.61020431	     -4.97544386	     -2.17275985	    105.42425178	      1.84000030	      4.70117310	     -1.08437574	      0.00000000	     24.40073832	      3.68788202	     -2.46426963	     44.71788413	      0.78047431	     26.99604819	      2.12118941	      0.00000000
      7.59333333	    -11.12852074	      2.05040749	      2.19695876	      2.12144199	      0.97132957	      0.99164803	     35.17990027	     -4.70223051	     -2.23529518	    104.21029273	      1.81881272	      5.10391143	     -0.86287730	      0.00000000	     22.71557712	      3.39273328	     -2.58158738	     43.11115904	      0.75243167	     26.74817878	      2.70303195	      0.00000000
      7.60000000	    -11.14941906	      1.86996361	      2.01291278	      2.12171333	      0.97577154	      0.99220625	     36.43296899	     -4.42236440	     -2.37450122	    102.68542816	      1.79219882	      5.52926853	     -0.70141185	      0.00000000	     20.78151541	      3.09664512	     -2.71470876	     41.31579319	      0.72109662	     26.32086127	      3.31207311	      0.00000000
      7.60666667	    -11.32714366	      1.62935533	      1.84597940	      2.12212224	      0.98037140	      0.99275036	     37.72695319	     -4.09832526	     -2.61349402	    100.89063329	      1.76087374	      5.90137361	     -0.70646984	      0.00000000	     18.98746156	      2.75449243	     -2.85302445	     39.41598460	      0.68793871	     25.54296208	      3.90428636	      0.00000000
      7.61333333	    -11.41852104	      1.37103521	      1.66999808	      2.12282984	      0.98542037	      0.99330017	     38.76543638	     -3.75182989	     -2.91199637	     98.80715867	      1.72451024	      6.26457810	     -0.83560054	      0.00000000	     17.04197223	      2.39600328	     -3.03074213	     37.37275596	      0.65227764	     24.49882130	      4.50388411	      0.00000000
      7.62000000	    -11.55583193	      1.07465461	      1.52905478	      2.12376327	      0.99060755	      0.99378663	     39.69467994	     -3.42288188	     -3.32363575	     96.46978776	      1.68371543	      6.60974562	     -1.08375869	      0.00000000	     15.13966321	      1.99284051	     -3.28243747	     35.26435317	      0.61547907	     23.06601158	      5.12155590	      0.00000000
      7.62666667	    -11.24930184	      0.79386090	      1.30617320	      2.12522990	      0.99665100	      0.99432655	     39.94804341	     -3.04398500	     -3.69756298	     93.83316755	      1.63769772	      6.97321246	     -1.49654042	      0.00000000	     12.63152381	      1.65778599	     -3.45025315	     32.89540629	      0.57413315	     21.60054442	      5.51428055	      0.00000000
      7.63333333	    -11.17511238	      0.48186736	      1.12324050	      2.12668565	      1.00239301	      0.99484731	     40.33720517	     -2.68412595	     -4.16534883	     91.01054978	      1.58843375	      7.29470190	     -1.99786195	      0.00000000	     10.43251475	      1.28069296	     -3.72002559	     30.56414731	      0.53344500	     19.66529999	      5.94704639	      0.00000000
      7.64000000	    -11.09716012	      0.16178207	      0.89898756	      2.12835789	      1.00810865	      0.99539253	     40.58185678	     -2.28352999	     -4.61573921	     87.97483802	      1.53545058	      7.57967286	     -2.65940840	      0.00000000	      8.23607783	      0.89968564	     -4.07840546	     28.21545784	      0.49245264	     17.52116707	      6.41016274	      0.00000000
      7.64666667	    -10.90345601	     -0.19947749	      0.76503775	      2.13020440	      1.01394754	      0.99579781	     40.52893030	     -1.93305388	     -5.20982394	     84.71513052	      1.47855795	      7.90450267	     -3.29250648	      0.00000000	      5.95067632	      0.53723999	     -4.22812761	     25.86569730	      0.45144158	     15.17919762	      6.59757837	      0.00000000
